<mxfile host="app.diagrams.net" agent="Mozilla/5.0 (Windows NT 10.0; Win64; x64) AppleWebKit/537.36 (KHTML, like Gecko) Chrome/134.0.0.0 Safari/537.36" version="26.1.1">
  <diagram name="PÃ¡gina-1" id="PAgjlzwSektNq7Bls8Fx">
    <mxGraphModel grid="1" page="1" gridSize="10" guides="1" tooltips="1" connect="1" arrows="1" fold="1" pageScale="1" pageWidth="827" pageHeight="1169" math="0" shadow="0">
      <root>
        <mxCell id="0" />
        <mxCell id="1" parent="0" />
        <mxCell id="I76CtdrzMitVCf4OR4KY-3" value="" style="edgeStyle=orthogonalEdgeStyle;rounded=0;orthogonalLoop=1;jettySize=auto;html=1;" edge="1" parent="1" source="I76CtdrzMitVCf4OR4KY-1" target="I76CtdrzMitVCf4OR4KY-2">
          <mxGeometry relative="1" as="geometry" />
        </mxCell>
        <mxCell id="I76CtdrzMitVCf4OR4KY-1" value="&lt;font style=&quot;font-size: 18px;&quot;&gt;inicio&lt;/font&gt;" style="ellipse;whiteSpace=wrap;html=1;fillColor=#fff2cc;strokeColor=#d6b656;" vertex="1" parent="1">
          <mxGeometry x="354" y="40" width="120" height="80" as="geometry" />
        </mxCell>
        <mxCell id="I76CtdrzMitVCf4OR4KY-8" value="" style="edgeStyle=orthogonalEdgeStyle;rounded=0;orthogonalLoop=1;jettySize=auto;html=1;" edge="1" parent="1" source="I76CtdrzMitVCf4OR4KY-2" target="I76CtdrzMitVCf4OR4KY-7">
          <mxGeometry relative="1" as="geometry" />
        </mxCell>
        <mxCell id="I76CtdrzMitVCf4OR4KY-2" value="h_trab, min_trab, ganho_h" style="shape=parallelogram;perimeter=parallelogramPerimeter;whiteSpace=wrap;html=1;fixedSize=1;fillColor=#dae8fc;strokeColor=#6c8ebf;" vertex="1" parent="1">
          <mxGeometry x="326" y="150" width="176" height="60" as="geometry" />
        </mxCell>
        <mxCell id="I76CtdrzMitVCf4OR4KY-10" value="" style="edgeStyle=orthogonalEdgeStyle;rounded=0;orthogonalLoop=1;jettySize=auto;html=1;" edge="1" parent="1" source="I76CtdrzMitVCf4OR4KY-7" target="I76CtdrzMitVCf4OR4KY-9">
          <mxGeometry relative="1" as="geometry" />
        </mxCell>
        <mxCell id="I76CtdrzMitVCf4OR4KY-7" value="min_dec = minutos / 60" style="whiteSpace=wrap;html=1;fillColor=#e1d5e7;strokeColor=#9673a6;" vertex="1" parent="1">
          <mxGeometry x="346" y="240" width="136" height="60" as="geometry" />
        </mxCell>
        <mxCell id="I76CtdrzMitVCf4OR4KY-12" value="" style="edgeStyle=orthogonalEdgeStyle;rounded=0;orthogonalLoop=1;jettySize=auto;html=1;" edge="1" parent="1" source="I76CtdrzMitVCf4OR4KY-9" target="I76CtdrzMitVCf4OR4KY-11">
          <mxGeometry relative="1" as="geometry" />
        </mxCell>
        <mxCell id="I76CtdrzMitVCf4OR4KY-9" value="hr_dec = horas + min_dec" style="whiteSpace=wrap;html=1;fillColor=#e1d5e7;strokeColor=#9673a6;" vertex="1" parent="1">
          <mxGeometry x="341" y="330" width="146" height="60" as="geometry" />
        </mxCell>
        <mxCell id="I76CtdrzMitVCf4OR4KY-14" value="" style="edgeStyle=orthogonalEdgeStyle;rounded=0;orthogonalLoop=1;jettySize=auto;html=1;" edge="1" parent="1" source="I76CtdrzMitVCf4OR4KY-11" target="I76CtdrzMitVCf4OR4KY-13">
          <mxGeometry relative="1" as="geometry" />
        </mxCell>
        <mxCell id="I76CtdrzMitVCf4OR4KY-11" value="salario = hr_dec * valor_hora" style="whiteSpace=wrap;html=1;fillColor=#e1d5e7;strokeColor=#9673a6;" vertex="1" parent="1">
          <mxGeometry x="341" y="420" width="146" height="60" as="geometry" />
        </mxCell>
        <mxCell id="I76CtdrzMitVCf4OR4KY-16" value="" style="edgeStyle=orthogonalEdgeStyle;rounded=0;orthogonalLoop=1;jettySize=auto;html=1;" edge="1" parent="1" source="I76CtdrzMitVCf4OR4KY-13" target="I76CtdrzMitVCf4OR4KY-15">
          <mxGeometry relative="1" as="geometry" />
        </mxCell>
        <mxCell id="I76CtdrzMitVCf4OR4KY-13" value="extra_70 = salario * 0.7" style="whiteSpace=wrap;html=1;fillColor=#e1d5e7;strokeColor=#9673a6;" vertex="1" parent="1">
          <mxGeometry x="346" y="510" width="136" height="60" as="geometry" />
        </mxCell>
        <mxCell id="I76CtdrzMitVCf4OR4KY-18" value="" style="edgeStyle=orthogonalEdgeStyle;rounded=0;orthogonalLoop=1;jettySize=auto;html=1;" edge="1" parent="1" source="I76CtdrzMitVCf4OR4KY-15" target="I76CtdrzMitVCf4OR4KY-17">
          <mxGeometry relative="1" as="geometry" />
        </mxCell>
        <mxCell id="I76CtdrzMitVCf4OR4KY-15" value="salario_final = salario + extra_70" style="whiteSpace=wrap;html=1;fillColor=#e1d5e7;strokeColor=#9673a6;" vertex="1" parent="1">
          <mxGeometry x="346" y="600" width="136" height="60" as="geometry" />
        </mxCell>
        <mxCell id="I76CtdrzMitVCf4OR4KY-20" value="" style="edgeStyle=orthogonalEdgeStyle;rounded=0;orthogonalLoop=1;jettySize=auto;html=1;" edge="1" parent="1" source="I76CtdrzMitVCf4OR4KY-17" target="I76CtdrzMitVCf4OR4KY-19">
          <mxGeometry relative="1" as="geometry" />
        </mxCell>
        <mxCell id="I76CtdrzMitVCf4OR4KY-17" value="salario_final" style="shape=document;whiteSpace=wrap;html=1;boundedLbl=1;fillColor=#d5e8d4;strokeColor=#82b366;" vertex="1" parent="1">
          <mxGeometry x="354" y="690" width="120" height="80" as="geometry" />
        </mxCell>
        <mxCell id="I76CtdrzMitVCf4OR4KY-19" value="&lt;font style=&quot;font-size: 18px;&quot;&gt;fim&lt;/font&gt;" style="ellipse;whiteSpace=wrap;html=1;fillColor=#fff2cc;strokeColor=#d6b656;" vertex="1" parent="1">
          <mxGeometry x="374" y="800" width="80" height="80" as="geometry" />
        </mxCell>
      </root>
    </mxGraphModel>
  </diagram>
</mxfile>
